<svg width="68" height="76" viewBox="0 0 68 76" fill="none" xmlns="http://www.w3.org/2000/svg">
<path d="M38.5 5C38.5 2.51472 36.4853 0.499999 34 0.499999C31.5147 0.499999 29.5 2.51472 29.5 5L38.5 5ZM30.818 74.2501C32.5754 76.0075 35.4246 76.0075 37.182 74.2501L65.8198 45.6123C67.5772 43.8549 67.5772 41.0057 65.8198 39.2483C64.0624 37.491 61.2132 37.491 59.4558 39.2483L34 64.7042L8.54415 39.2483C6.78679 37.491 3.93755 37.491 2.18019 39.2483C0.422832 41.0057 0.422832 43.8549 2.18019 45.6123L30.818 74.2501ZM29.5 5L29.5 71.0682H38.5L38.5 5L29.5 5Z" fill="white"/>
</svg>
