<svg xmlns="http://www.w3.org/2000/svg" xmlns:xlink="http://www.w3.org/1999/xlink" viewBox="0 0 212.92 63.86">
  <defs>
    <style>
      .cls-1 {
        fill: none;
      }

      .cls-2 {
        clip-path: url(#clip-path);
      }

      .cls-3 {
        fill: #fff;
      }

      .cls-4 {
        fill: #999998;
      }

      .cls-5 {
        fill: #9d9d9c;
      }

      .cls-6 {
        fill: #e6007e;
      }

      .cls-7 {
        fill: #878787;
      }
    </style>
    <clipPath id="clip-path">
      <rect class="cls-1" x="0.1" y="0.04" width="212.6" height="63.78"/>
    </clipPath>
  </defs>
  <title>Element 1</title>
  <g id="Ebene_2" data-name="Ebene 2">
    <g id="Ebene_1-2" data-name="Ebene 1">
      <g>
        <g class="cls-2">
          <polygon class="cls-3" points="212.92 63.86 0 63.86 0 0 212.92 0 212.92 63.86 212.92 63.86"/>
        </g>
        <path class="cls-4" d="M82.61,28.18H76v-.81l.78-.06a2.4,2.4,0,0,0,.71-.14,1,1,0,0,0,.5-.41A1.48,1.48,0,0,0,78.1,26v-5.7H70.57v5.58a1.47,1.47,0,0,0,.13.66,1.17,1.17,0,0,0,.52.48,2.74,2.74,0,0,0,.67.2,4.08,4.08,0,0,0,.78.11v.81H66v-.81l.78-.06a2.32,2.32,0,0,0,.71-.14.94.94,0,0,0,.5-.41,1.48,1.48,0,0,0,.16-.72V14.48a1.38,1.38,0,0,0-.15-.65,1,1,0,0,0-.51-.48A4.65,4.65,0,0,0,66,13v-.8h6.65V13a4.37,4.37,0,0,0-.78.1,4.22,4.22,0,0,0-.67.17.82.82,0,0,0-.52.45,1.73,1.73,0,0,0-.13.69v5H78.1V14.48a1.51,1.51,0,0,0-.14-.65,1,1,0,0,0-.51-.48,4.33,4.33,0,0,0-.75-.26A4,4,0,0,0,76,13v-.8h6.65V13a6.33,6.33,0,0,0-1.46.27.84.84,0,0,0-.52.45,1.92,1.92,0,0,0-.12.69V25.92a1.62,1.62,0,0,0,.12.66,1.23,1.23,0,0,0,.52.48,2.86,2.86,0,0,0,.68.2,4.08,4.08,0,0,0,.78.11v.81Z"/>
        <path class="cls-4" d="M90.71,22c-.64.19-1.2.37-1.68.55a7.32,7.32,0,0,0-1.34.68,2.88,2.88,0,0,0-.89.92,2.25,2.25,0,0,0-.33,1.24A1.81,1.81,0,0,0,87,26.78a1.86,1.86,0,0,0,1.26.44,2.58,2.58,0,0,0,1.41-.39,4.16,4.16,0,0,0,1-.92l.06-3.9Zm3.94,6c-.35.13-.66.23-.93.31a3.18,3.18,0,0,1-.91.12A2.29,2.29,0,0,1,91.4,28a2,2,0,0,1-.66-1.21h-.07A5.64,5.64,0,0,1,89.09,28a4.34,4.34,0,0,1-2,.43A2.9,2.9,0,0,1,85,27.69a2.67,2.67,0,0,1-.8-2,3.43,3.43,0,0,1,.18-1.15,2.86,2.86,0,0,1,.54-.92,2.69,2.69,0,0,1,.75-.59,5.81,5.81,0,0,1,.87-.43c.34-.13,1-.37,2-.71a14.94,14.94,0,0,0,2.1-.82V19.94a3.81,3.81,0,0,0-.07-.56,2,2,0,0,0-.26-.79,2.09,2.09,0,0,0-.64-.72,1.86,1.86,0,0,0-1.16-.32,2.58,2.58,0,0,0-1,.18,1.86,1.86,0,0,0-.62.36,3.07,3.07,0,0,0,.1.67,3.49,3.49,0,0,1,.11.81,1,1,0,0,1-.36.73,1.41,1.41,0,0,1-1,.32,1,1,0,0,1-.84-.39,1.67,1.67,0,0,1-.26-.91,1.63,1.63,0,0,1,.36-1,3.8,3.8,0,0,1,1-.85A5.41,5.41,0,0,1,87.29,17a4.8,4.8,0,0,1,1.41-.22,8.76,8.76,0,0,1,1.65.13,3,3,0,0,1,1.29.56,2.58,2.58,0,0,1,.87,1.14,4.74,4.74,0,0,1,.3,1.84c0,1.07,0,2,0,2.86s0,1.74,0,2.73a1.43,1.43,0,0,0,.14.7,1.37,1.37,0,0,0,.48.44,1.28,1.28,0,0,0,.53.11h.75V28Z"/>
        <path class="cls-4" d="M103.82,18.48a1.86,1.86,0,0,1-.28,1,1,1,0,0,1-.87.45,1.34,1.34,0,0,1-1-.33,1,1,0,0,1-.33-.72,2.19,2.19,0,0,1,0-.46c0-.13,0-.27.08-.4a2.49,2.49,0,0,0-1.25.43A3.6,3.6,0,0,0,99,19.69v6.48a1.24,1.24,0,0,0,.14.64.93.93,0,0,0,.49.37,2.94,2.94,0,0,0,.72.17c.3,0,.56.07.78.08v.75H95.3v-.75l.53,0a2.58,2.58,0,0,0,.48-.09.82.82,0,0,0,.47-.35,1.35,1.35,0,0,0,.16-.67V19.4a1.59,1.59,0,0,0-.17-.69,1.42,1.42,0,0,0-.46-.54,1.49,1.49,0,0,0-.5-.19,5.8,5.8,0,0,0-.64-.09v-.73l3.71-.25.16.16v1.57h0a5.05,5.05,0,0,1,1.56-1.39,3.24,3.24,0,0,1,1.57-.48,1.51,1.51,0,0,1,1.15.47,1.69,1.69,0,0,1,.45,1.24"/>
        <path class="cls-4" d="M123.38,28.18H118v-.75l.52,0a1.94,1.94,0,0,0,.47-.1.75.75,0,0,0,.46-.34,1.26,1.26,0,0,0,.16-.67V20.53a2.69,2.69,0,0,0-.54-1.8,1.66,1.66,0,0,0-1.33-.65,3.19,3.19,0,0,0-1,.17,3.07,3.07,0,0,0-.89.48,2.62,2.62,0,0,0-.56.54,4.42,4.42,0,0,0-.32.47v6.43a1.39,1.39,0,0,0,.13.65,1,1,0,0,0,.46.39,4.92,4.92,0,0,0,.47.15,3.24,3.24,0,0,0,.55.07v.75h-5.32v-.75l.5,0a2,2,0,0,0,.45-.1.75.75,0,0,0,.46-.34,1.26,1.26,0,0,0,.16-.67V20.53a2.69,2.69,0,0,0-.54-1.8,1.66,1.66,0,0,0-1.33-.65,3,3,0,0,0-1,.18,3.33,3.33,0,0,0-.89.48,2.43,2.43,0,0,0-.55.56c-.16.21-.27.36-.34.47v6.37a1.3,1.3,0,0,0,.15.65,1,1,0,0,0,.48.39,2.3,2.3,0,0,0,.48.17,3,3,0,0,0,.56.08v.75h-5.41v-.75l.53,0a2.11,2.11,0,0,0,.49-.1.77.77,0,0,0,.46-.34,1.35,1.35,0,0,0,.16-.67V19.36a1.29,1.29,0,0,0-.17-.65,1.5,1.5,0,0,0-.45-.49,2.09,2.09,0,0,0-.54-.22,3.39,3.39,0,0,0-.65-.11v-.73l3.73-.25.15.16v1.59h.08l.69-.67a6.3,6.3,0,0,1,.76-.62,3.57,3.57,0,0,1,1-.45,4.47,4.47,0,0,1,1.29-.18,3,3,0,0,1,1.86.59,3.28,3.28,0,0,1,1.12,1.4c.27-.27.5-.5.71-.69a5.58,5.58,0,0,1,.82-.65,3.93,3.93,0,0,1,1-.47,4.39,4.39,0,0,1,1.3-.18,2.83,2.83,0,0,1,2.23.93,4.15,4.15,0,0,1,.83,2.84v5.66a1.39,1.39,0,0,0,.13.65,1,1,0,0,0,.46.39,4.07,4.07,0,0,0,.51.15,4.61,4.61,0,0,0,.58.07v.75Z"/>
        <path class="cls-4" d="M132.73,22.52a10.19,10.19,0,0,0-.17-1.78,5.76,5.76,0,0,0-.51-1.61,3.16,3.16,0,0,0-1-1.12,2.39,2.39,0,0,0-1.43-.42,2.59,2.59,0,0,0-1.49.42,3.23,3.23,0,0,0-1,1.18,5.27,5.27,0,0,0-.51,1.57,11.23,11.23,0,0,0-.14,1.7,10.47,10.47,0,0,0,.17,2,6.09,6.09,0,0,0,.56,1.64,3.39,3.39,0,0,0,1,1.14,2.48,2.48,0,0,0,1.45.41,2.51,2.51,0,0,0,2.23-1.37,7.29,7.29,0,0,0,.83-3.77m2.33,0a7.34,7.34,0,0,1-.37,2.31,5.57,5.57,0,0,1-1.06,1.92,4.89,4.89,0,0,1-1.81,1.34,5.65,5.65,0,0,1-2.3.44,5.3,5.3,0,0,1-2-.39A5.22,5.22,0,0,1,125.79,27a5.85,5.85,0,0,1-1.17-1.84,6.61,6.61,0,0,1-.43-2.46,6.11,6.11,0,0,1,1.51-4.26,5.16,5.16,0,0,1,4-1.66,5.11,5.11,0,0,1,3.85,1.58,5.74,5.74,0,0,1,1.52,4.19"/>
        <path class="cls-4" d="M148.51,28.18h-5.45v-.75l.56,0a2.08,2.08,0,0,0,.52-.1.75.75,0,0,0,.46-.34,1.26,1.26,0,0,0,.16-.67V20.56a2.71,2.71,0,0,0-.56-1.83,1.73,1.73,0,0,0-1.36-.65,3.15,3.15,0,0,0-1.09.19,4,4,0,0,0-.88.46,2.5,2.5,0,0,0-.6.56,5.63,5.63,0,0,0-.32.48v6.4a1.23,1.23,0,0,0,.16.63,1.06,1.06,0,0,0,.47.38,2.18,2.18,0,0,0,.51.17,3.68,3.68,0,0,0,.58.08v.75h-5.45v-.75l.53,0a2,2,0,0,0,.48-.1.8.8,0,0,0,.47-.34,1.36,1.36,0,0,0,.15-.67V19.4a1.4,1.4,0,0,0-.17-.7,1.35,1.35,0,0,0-.45-.53,1.46,1.46,0,0,0-.51-.19,5.3,5.3,0,0,0-.63-.09v-.73l3.7-.25.16.16v1.57H140c.18-.19.41-.4.68-.65a6.3,6.3,0,0,1,.76-.62,4,4,0,0,1,1-.45,4.3,4.3,0,0,1,1.3-.18,2.81,2.81,0,0,1,2.37,1,4.21,4.21,0,0,1,.78,2.66v5.79a1.32,1.32,0,0,0,.13.64,1,1,0,0,0,.46.38,4,4,0,0,0,.47.15,3.11,3.11,0,0,0,.55.07v.75Z"/>
        <path class="cls-4" d="M153.4,12.52a1.65,1.65,0,0,1-.43,1.13,1.36,1.36,0,0,1-2,0,1.53,1.53,0,0,1-.42-1.05,1.57,1.57,0,0,1,.42-1.09,1.34,1.34,0,0,1,1-.46,1.37,1.37,0,0,1,1,.44,1.4,1.4,0,0,1,.42,1m1.42,15.66h-5.38v-.75l.53,0a1.92,1.92,0,0,0,.48-.1.8.8,0,0,0,.47-.34,1.36,1.36,0,0,0,.15-.67V19.4a1.28,1.28,0,0,0-.16-.65,1.49,1.49,0,0,0-.46-.51,2.25,2.25,0,0,0-.62-.23,5.94,5.94,0,0,0-.74-.12v-.73l3.93-.25.15.16v9.07a1.29,1.29,0,0,0,.15.66,1,1,0,0,0,.49.38,3.06,3.06,0,0,0,.48.17,2.81,2.81,0,0,0,.53.08v.75Z"/>
        <path class="cls-4" d="M160.87,28.47a4.69,4.69,0,0,1-3.78-1.6,6.44,6.44,0,0,1-1.36-4.31,6.53,6.53,0,0,1,.36-2.19,6.17,6.17,0,0,1,1.07-1.86,5,5,0,0,1,1.67-1.29,4.88,4.88,0,0,1,2.19-.49,4.26,4.26,0,0,1,2.67.79,2.54,2.54,0,0,1,1,2.13,1.91,1.91,0,0,1-.27,1,1,1,0,0,1-.89.43,1.53,1.53,0,0,1-1-.34,1,1,0,0,1-.36-.76,4.26,4.26,0,0,1,.14-1,6.25,6.25,0,0,0,.15-.79,1,1,0,0,0-.61-.46,3.29,3.29,0,0,0-.85-.13,2.33,2.33,0,0,0-1,.24,2.63,2.63,0,0,0-.95.85,4.48,4.48,0,0,0-.68,1.52,9,9,0,0,0-.26,2.29,5.9,5.9,0,0,0,.93,3.44,2.87,2.87,0,0,0,2.45,1.32,3.07,3.07,0,0,0,1.83-.53,5.36,5.36,0,0,0,1.37-1.59l.73.47a5.89,5.89,0,0,1-2,2.11,4.6,4.6,0,0,1-2.52.78"/>
        <path class="cls-5" d="M52.76,41.15a21.81,21.81,0,1,1-10.55-29,21.82,21.82,0,0,1,10.55,29ZM38.51,15.9l-2,1L35.06,15.1l-1.8,1.37L31.52,15,30,16.76l-2-1L27,17.7l-2.18-.6-.64,2.17-2.26-.14-.18,2.26-2.23.34L19.74,24l-2.11.79.75,2.14-1.9,1.22L17.65,30,16,31.63l1.56,1.65-1.25,1.88,1.86,1.29-.82,2.1,2.09.87-.37,2.23,2.22.42.1,2.26,2.26-.06.57,2.19,2.2-.52,1,2,2.05-1,1.41,1.76,1.79-1.37,1.75,1.44,1.47-1.72,2,1,1.08-2,2.18.59.65-2.16,2.25.13.19-2.25,2.23-.34-.29-2.24,2.12-.8L47.61,37l1.9-1.22-1.18-1.93,1.61-1.59-1.55-1.64,1.24-1.89-1.86-1.28.83-2.11-2.09-.86.37-2.23-2.22-.42-.11-2.26-2.26,0-.57-2.18-2.19.52-1-2Z"/>
        <polygon class="cls-6" points="45.4 37.71 43.4 38.41 43.85 40.48 41.77 40.86 41.88 42.97 39.77 43.01 39.53 45.11 37.44 44.78 36.82 46.8 34.84 46.07 33.81 47.92 32.04 46.76 30.59 48.3 29.18 46.73 27.38 47.82 26.46 45.92 24.42 46.44 24.09 44.36 21.98 44.29 22.24 42.19 20.21 41.58 20.97 39.6 19.13 38.55 20.28 36.78 18.68 35.39 20.14 33.85 18.81 32.21 20.5 30.94 19.46 29.1 21.33 28.12 20.58 26.14 22.57 25.44 22.13 23.38 24.21 23 24.09 20.88 26.21 20.84 26.45 18.74 28.54 19.07 29.16 17.05 31.14 17.78 32.17 15.94 33.94 17.09 35.38 15.55 36.79 17.12 38.6 16.03 39.51 17.94 41.56 17.41 41.89 19.5 44 19.57 43.74 21.66 45.76 22.28 45.01 24.25 46.84 25.3 45.7 27.08 47.29 28.46 45.84 30 47.16 31.64 45.47 32.91 46.52 34.75 44.65 35.74 45.4 37.71 45.4 37.71"/>
        <path class="cls-3" d="M42,36.14c-3.32,7.11-10,11-15,8.67s-6.35-10-3-17.1,10-11,15-8.66,6.35,10,3,17.09Z"/>
        <path class="cls-6" d="M37.17,33.88c-2.09,4.49-5.66,7.26-8,6.18S26.72,34.47,28.81,30s5.67-7.26,8-6.19,2.48,5.6.38,10.09Z"/>
        <path class="cls-7" d="M36,20.64a2.06,2.06,0,1,1,3.8,1.57A2.06,2.06,0,0,1,36,20.64"/>
        <path class="cls-7" d="M26.19,41.65A2.06,2.06,0,1,1,30,43.22a2.06,2.06,0,0,1-3.8-1.57"/>
        <path class="cls-7" d="M24.48,28.06a2.06,2.06,0,1,1,1.12,2.69,2.06,2.06,0,0,1-1.12-2.69"/>
        <path class="cls-7" d="M37.7,34.22a2.06,2.06,0,1,1,1.11,2.69,2.06,2.06,0,0,1-1.11-2.69"/>
        <path class="cls-7" d="M31.06,20.9a2.06,2.06,0,1,1,3.8,1.57,2.06,2.06,0,0,1-3.8-1.57"/>
        <path class="cls-7" d="M27.18,23.92a2.06,2.06,0,1,1,1.11,2.69,2.06,2.06,0,0,1-1.11-2.69"/>
        <path class="cls-7" d="M42.69,26.32a2.06,2.06,0,1,0-2.77.87,2.07,2.07,0,0,0,2.77-.87"/>
        <path class="cls-7" d="M42.87,31.24a2.06,2.06,0,1,0-2.77.87,2.06,2.06,0,0,0,2.77-.87"/>
        <path class="cls-7" d="M34.93,43a2.06,2.06,0,1,1-3.8-1.57A2.06,2.06,0,0,1,34.93,43"/>
        <path class="cls-7" d="M38.81,39.94a2.06,2.06,0,1,1-1.11-2.69,2.07,2.07,0,0,1,1.11,2.69"/>
        <path class="cls-7" d="M23.3,37.54a2.06,2.06,0,1,0,2.77-.87,2.06,2.06,0,0,0-2.77.87"/>
        <path class="cls-7" d="M23.12,32.62a2.06,2.06,0,1,0,2.77-.88,2.06,2.06,0,0,0-2.77.88"/>
        <path class="cls-4" d="M80.4,39.49a6.86,6.86,0,0,0-2.2-2.62,8.55,8.55,0,0,0-2.42-1.2A9.44,9.44,0,0,0,73,35.23H66V36a5.58,5.58,0,0,1,.7.1,2.65,2.65,0,0,1,.75.25.93.93,0,0,1,.51.48,1.65,1.65,0,0,1,.13.68V49a1.54,1.54,0,0,1-.15.7,1,1,0,0,1-.49.43,2.71,2.71,0,0,1-.69.14,7.77,7.77,0,0,1-.85.06v.8H72.5a11,11,0,0,0,3.18-.47,8.68,8.68,0,0,0,2.77-1.43,7.19,7.19,0,0,0,2-2.45,7.63,7.63,0,0,0,.76-3.53,8.38,8.38,0,0,0-.8-3.8Zm-2.27,6.67a6.17,6.17,0,0,1-1,2.18,4.51,4.51,0,0,1-1.73,1.4,5.71,5.71,0,0,1-2.49.51,3.31,3.31,0,0,1-1.83-.4,1.55,1.55,0,0,1-.6-1.41V36.2l.86,0,1,0a5.88,5.88,0,0,1,2.51.53,5.39,5.39,0,0,1,1.91,1.45A6.6,6.6,0,0,1,78,40.39a9.06,9.06,0,0,1,.43,2.9,11.76,11.76,0,0,1-.32,2.87Zm12.2-5.88a1.53,1.53,0,0,0-1.15-.46,3.24,3.24,0,0,0-1.56.48,5,5,0,0,0-1.55,1.38h0V40.12L85.86,40l-3.68.25V41a3.88,3.88,0,0,1,.62.08,1.47,1.47,0,0,1,.51.2,1.36,1.36,0,0,1,.46.54,1.65,1.65,0,0,1,.16.68v6.83a1.29,1.29,0,0,1-.15.66.81.81,0,0,1-.47.35,1.58,1.58,0,0,1-.48.09l-.53,0v.74h5.84v-.74l-.77-.08a3.18,3.18,0,0,1-.72-.17.92.92,0,0,1-.48-.37,1.24,1.24,0,0,1-.15-.64V42.72a3.65,3.65,0,0,1,1.2-1.21,2.43,2.43,0,0,1,1.23-.43c0,.14,0,.27-.07.41a2,2,0,0,0,0,.45,1,1,0,0,0,.33.71,1.3,1.3,0,0,0,1,.33,1,1,0,0,0,.87-.44,2,2,0,0,0,.28-1,1.7,1.7,0,0,0-.45-1.24Zm6.76,10.15a3.5,3.5,0,0,1-.52-.09,3,3,0,0,1-.48-.16.89.89,0,0,1-.48-.38,1.3,1.3,0,0,1-.15-.65v-9L95.3,40l-3.9.25V41a3.65,3.65,0,0,1,.74.12,2.07,2.07,0,0,1,.62.23,1.5,1.5,0,0,1,.45.49,1.34,1.34,0,0,1,.16.66v6.83a1.29,1.29,0,0,1-.15.66.82.82,0,0,1-.46.35,1.71,1.71,0,0,1-.48.09l-.54,0v.74h5.35v-.74ZM95.28,34.59a1.4,1.4,0,0,0-1-.44,1.33,1.33,0,0,0-1,.46,1.56,1.56,0,0,0-.42,1.08,1.48,1.48,0,0,0,.42,1,1.33,1.33,0,0,0,1,.46,1.35,1.35,0,0,0,1-.48,1.64,1.64,0,0,0,.42-1.12,1.41,1.41,0,0,0-.41-1Zm13.89,5.5h-4.24v.72l.41.08a2.69,2.69,0,0,1,.5.17,1.71,1.71,0,0,1,.44.26.43.43,0,0,1,.19.35,1.46,1.46,0,0,1-.1.53c-.07.17-.14.36-.21.56q-.72,1.79-1.32,3.21l-1,2.4c-.35-.83-.81-1.94-1.37-3.31s-1-2.43-1.3-3.19a2,2,0,0,0-.11-.32.53.53,0,0,1-.05-.18c0-.15.16-.26.5-.35a4,4,0,0,1,.84-.14v-.79H97.21v.75a2.81,2.81,0,0,1,1,.36,1.66,1.66,0,0,1,.73.8q1,2.28,1.86,4.46c.6,1.44,1.26,3,2,4.81h.87c.15-.44.3-.89.47-1.36s.33-.88.48-1.22l1.47-3.44c.47-1.09.93-2.13,1.37-3.13a2.23,2.23,0,0,1,.78-1,2.8,2.8,0,0,1,1-.36v-.69Zm9,8a4.78,4.78,0,0,1-1.4,1.69,3.11,3.11,0,0,1-1.72.46,3.57,3.57,0,0,1-1.69-.37,3.14,3.14,0,0,1-1.14-1,4.74,4.74,0,0,1-.66-1.57,8.59,8.59,0,0,1-.21-2h7.34v-.74a6.41,6.41,0,0,0-.26-1.85,4,4,0,0,0-.77-1.48,3.65,3.65,0,0,0-1.4-1.05,5.22,5.22,0,0,0-2.08-.38,4.58,4.58,0,0,0-2.13.49,4.86,4.86,0,0,0-1.59,1.28,6.13,6.13,0,0,0-1,1.87,6.72,6.72,0,0,0-.34,2.12,7.76,7.76,0,0,0,.32,2.28,5.3,5.3,0,0,0,1,1.89A4.59,4.59,0,0,0,112,51a5.57,5.57,0,0,0,2.35.47,4.64,4.64,0,0,0,2.68-.79,5.53,5.53,0,0,0,1.86-2.11l-.78-.48Zm-6.82-3.74a4.62,4.62,0,0,1,.85-2.73,2.41,2.41,0,0,1,2-1,1.92,1.92,0,0,1,1.16.33,2.14,2.14,0,0,1,.7.84,4.28,4.28,0,0,1,.35,1.2,9.11,9.11,0,0,1,.1,1.34ZM134.06,43a10.45,10.45,0,0,0-1.29-.66c-.5-.22-1-.42-1.54-.61s-1.06-.42-1.61-.68a3.55,3.55,0,0,1-1.4-1.12,2.88,2.88,0,0,1-.49-1.71,2.17,2.17,0,0,1,.76-1.68,2.62,2.62,0,0,1,1.82-.68,3.42,3.42,0,0,1,1.7.39,3.53,3.53,0,0,1,1.18,1,6.42,6.42,0,0,1,.81,1.51c.2.55.39,1.13.55,1.74h.91l-.09-5.29h-.9L134,36a9.8,9.8,0,0,0-1.59-.78,5.61,5.61,0,0,0-3.82,0,4.75,4.75,0,0,0-1.54.92,4.44,4.44,0,0,0-1.06,1.4,4.47,4.47,0,0,0,.38,4.26,5.23,5.23,0,0,0,2.1,1.59c.45.21,1,.43,1.62.67l1.68.64a3.28,3.28,0,0,1,1.6,1.25,3.21,3.21,0,0,1,.54,1.79,3.71,3.71,0,0,1-.17,1.15,2.45,2.45,0,0,1-.54.87,2.29,2.29,0,0,1-.93.57,4.38,4.38,0,0,1-3.17-.19,4.36,4.36,0,0,1-1.36-1,6.15,6.15,0,0,1-1-1.52,13,13,0,0,1-.66-1.83h-.91l.16,5.46h.9l.48-.82a8.36,8.36,0,0,0,1.85.8,7.16,7.16,0,0,0,2.13.33,5.62,5.62,0,0,0,3.87-1.37,4.42,4.42,0,0,0,1.56-3.48,4.55,4.55,0,0,0-.24-1.55,3.71,3.71,0,0,0-.74-1.23,5,5,0,0,0-1.09-.87Zm16.66,3.48a9.94,9.94,0,0,1-.72,1.61,7.11,7.11,0,0,1-1.09,1.64,1.36,1.36,0,0,1-.64.32,5.85,5.85,0,0,1-.88.16,9.63,9.63,0,0,1-1,0h-1a10.69,10.69,0,0,1-1.44-.07,1.72,1.72,0,0,1-.8-.27,1.07,1.07,0,0,1-.39-.63,4.79,4.79,0,0,1-.1-1.13V43.37h1.8a4.15,4.15,0,0,1,1.17.14,1.59,1.59,0,0,1,.79.57,3,3,0,0,1,.41.87,5.06,5.06,0,0,1,.24,1.14h.85V39.85h-.85a4.62,4.62,0,0,1-.23,1,2.52,2.52,0,0,1-.42.87,1.67,1.67,0,0,1-.7.55,3.59,3.59,0,0,1-1.26.16h-1.8V36.12h2.5l1.1,0c.33,0,.6,0,.84.07a2.43,2.43,0,0,1,1.42,1,5.29,5.29,0,0,1,1,1.81h.84V35.23H138V36a6,6,0,0,1,.81.13,4,4,0,0,1,.82.26,1,1,0,0,1,.51.47,1.51,1.51,0,0,1,.13.65V49a1.49,1.49,0,0,1-.14.68,1,1,0,0,1-.5.44,2.51,2.51,0,0,1-.73.15l-.9.1v.8h13.23l.3-4.7Z"/>
      </g>
    </g>
  </g>
</svg>
