<svg width="72" height="72" viewBox="0 0 72 72" fill="none" xmlns="http://www.w3.org/2000/svg">
<path d="M69.5318 2.04175C68.4565 2.04175 67.202 2.04175 66.1266 2.04175C58.7785 2.40019 51.7889 4.01319 45.1577 7.23918C37.0927 11.0028 30.2823 16.3795 24.9056 23.5484C21.142 28.3873 18.4536 33.764 16.4822 39.4991C16.303 39.8575 16.4822 40.0368 16.6614 40.216C18.2744 41.829 19.8874 43.442 21.5004 45.055C21.6796 45.2342 21.8589 45.5926 21.8589 45.9511C21.8589 46.3095 21.6796 46.668 21.3212 46.8472C20.9627 47.0264 20.4251 47.0264 20.2459 46.668C19.3497 45.7719 18.6329 45.055 17.7368 44.1589C16.6614 43.0835 15.7653 42.0082 14.69 41.1121C14.3315 40.7536 14.1523 40.216 14.3315 39.6783C16.6614 32.6887 20.0666 26.2367 24.9056 20.5016C29.7446 14.5873 35.6589 9.92751 42.2901 6.52229C48.3837 3.2963 55.0149 1.32486 61.8253 0.428753C64.6929 0.0703095 67.5604 -0.108912 70.4279 0.0703096C71.3241 0.0703096 71.5033 0.428753 71.6825 1.32486C72.0409 12.9743 69.1734 23.7276 62.9006 33.764C56.6279 43.6212 48.0252 50.9693 37.2719 55.6291C35.6589 56.3459 33.8667 56.8836 32.0745 57.6005C31.5368 57.7797 31.1784 57.7797 30.8199 57.2421C29.0277 55.4498 27.0563 53.4784 25.2641 51.6862C24.9056 51.3277 24.7264 50.7901 25.0848 50.2524C25.4433 49.7147 26.1602 49.7147 26.6978 50.2524C28.3108 51.8654 29.9238 53.4784 31.5368 55.0914C31.8953 55.4498 32.0745 55.4498 32.4329 55.2706C40.3187 52.5823 47.3083 48.281 53.2227 42.5459C60.2123 35.7354 64.8721 27.6705 67.5604 18.5301C68.9942 13.5119 69.7111 8.31451 69.7111 2.93786C69.7111 2.57941 69.5318 2.40019 69.5318 2.04175Z" fill="white"/>
<path d="M59.6746 23.0107C59.6746 29.1042 54.8356 33.9432 48.7421 33.9432C42.6486 33.9432 37.8096 29.1042 37.8096 23.0107C37.8096 17.0963 42.6486 12.0781 48.5629 12.0781C54.8356 12.0781 59.6746 16.9171 59.6746 23.0107ZM57.524 23.1899C57.524 18.1717 53.5811 14.2288 48.5629 14.2288C43.5447 14.2288 39.6018 18.1717 39.6018 23.1899C39.6018 28.2081 43.5447 32.151 48.5629 32.151C53.5811 31.9717 57.524 28.0289 57.524 23.1899Z" fill="white"/>
<path d="M32.2538 68.8915C33.5083 68.1746 34.7629 67.2785 35.8382 66.3824C39.4226 63.1564 41.3941 59.2135 42.2902 54.5537C42.4694 53.8368 42.8279 53.4784 43.3655 53.4784C44.0824 53.4784 44.4408 54.0161 44.4408 54.7329C44.2616 55.6291 44.0824 56.7044 43.724 57.6005C41.7525 63.694 38.1681 68.1746 32.6122 71.2213C31.3577 71.9382 30.82 71.5798 30.6408 70.3252C29.9239 66.5616 29.207 62.6187 28.4901 58.855C28.4901 58.4966 28.4901 58.1382 28.4901 57.9589C28.6693 57.6005 29.0278 57.4213 29.5654 57.4213C29.9239 57.4213 30.2823 57.7797 30.4616 58.1382C30.6408 59.2135 30.82 60.2888 31.1784 61.5434C31.3577 64.0525 31.8953 66.3824 32.2538 68.8915Z" fill="white"/>
<path d="M2.68219 39.3198C3.75752 39.499 4.83285 39.6782 5.72896 39.8574C8.23806 40.3951 10.7472 40.7536 13.077 41.2912C13.2563 41.2912 13.2563 41.2912 13.4355 41.2912C13.9732 41.4704 14.3316 42.0081 14.1524 42.5458C13.9732 43.0834 13.6147 43.4419 12.8978 43.2627C11.4641 42.9042 9.85106 42.725 8.41728 42.3666C6.0874 41.8289 3.75752 41.4704 1.24841 40.9328C1.06919 40.9328 1.06919 40.9328 0.88997 40.9328C-0.00613915 40.7536 -0.185361 40.2159 0.173083 39.3198C1.24841 37.3483 2.50297 35.3769 4.11596 33.7639C7.52117 30.1795 11.6433 28.208 16.303 27.1327C16.4823 27.1327 16.6615 27.1327 16.6615 26.9535C17.1992 26.7743 17.7368 27.1327 17.916 27.6704C18.0953 28.208 17.7368 28.7457 17.0199 28.9249C15.9446 29.2834 14.69 29.4626 13.6147 29.821C8.95495 31.434 5.37051 34.3016 2.68219 38.4237C2.86141 38.9613 2.86141 39.1406 2.68219 39.3198Z" fill="white"/>
<path d="M15.4069 55.2706C15.5861 55.0913 15.7653 54.7329 15.9445 54.5537C19.3497 51.1485 22.5757 47.9225 25.9809 44.5173C27.2355 43.2627 28.3108 42.1874 29.5654 40.9328C30.103 40.3952 30.6407 40.3952 31.1784 40.7536C31.5368 41.112 31.5368 41.8289 30.9992 42.3666C27.0563 46.3095 23.1134 50.4316 18.9913 54.3745C18.4536 54.9121 17.916 55.629 17.1991 56.1667C16.8406 56.5251 16.4822 56.5251 16.1237 56.3459C15.5861 56.1667 15.4069 55.8082 15.4069 55.2706Z" fill="white"/>
<path d="M10.7472 59.9303C11.1056 60.1095 11.4641 60.2887 11.6433 60.6472C11.8225 61.0056 11.6433 61.3641 11.4641 61.7225C11.2849 61.9017 10.9264 62.2602 10.7472 62.6186C8.59654 64.7693 6.44588 67.0992 4.11599 69.2498C3.75755 69.4291 3.57833 69.6083 3.21989 69.6083C2.86144 69.6083 2.503 69.429 2.32378 69.0706C2.14456 68.5329 2.14456 68.1745 2.503 67.8161C3.93677 66.3823 5.37055 64.9485 6.80432 63.5147C7.87965 62.4394 8.77576 61.5433 9.85109 60.468C10.2095 60.2887 10.3888 60.1095 10.7472 59.9303Z" fill="white"/>
<path d="M9.13408 52.5823C10.0302 52.5823 10.5679 53.4784 10.2094 54.016C10.0302 54.1953 10.0302 54.3745 9.85097 54.5537C7.52109 56.8836 5.1912 59.2135 2.86132 61.5434L2.6821 61.7226C2.14443 62.081 1.60677 62.2603 1.24832 61.7226C0.889881 61.3641 0.889881 60.6473 1.24832 60.2888C3.04054 58.4966 4.83276 56.7044 6.62498 54.9122C7.34186 54.1953 7.87953 53.6576 8.59642 53.1199C8.77564 52.7615 9.13408 52.5823 9.13408 52.5823Z" fill="white"/>
<path d="M19.1707 62.6188C19.1707 62.798 18.9914 62.9772 18.8122 63.3357C16.3031 65.8448 13.9732 68.1747 11.4641 70.6838C10.9265 71.2214 10.3888 71.2214 9.85113 70.6838C9.49269 70.3253 9.49269 69.6084 10.0304 69.25C12.5395 66.7409 14.8693 64.411 17.3784 61.9019C17.7369 61.5435 18.0953 61.3642 18.633 61.5435C18.9914 61.7227 19.1707 61.9019 19.1707 62.6188Z" fill="white"/>
</svg>
