<svg width="1149" height="1126" viewBox="0 0 1149 1126" fill="none" xmlns="http://www.w3.org/2000/svg">
<path fill-rule="evenodd" clip-rule="evenodd" d="M568.39 10.6633C736.042 -25.8793 924.262 33.6072 1041.01 156.814C1154.97 277.088 1155.1 455.326 1144.81 618.986C1135.3 770.144 1102.4 927.441 986.228 1027.59C875.108 1123.38 714.362 1140.55 568.39 1115.9C444.134 1094.91 367.634 989.418 273.628 907.233C169.729 816.4 1.31147 755.266 0.00725147 618.986C-1.29816 482.581 173.966 425.997 268.059 325.292C370.935 215.187 419.528 43.1105 568.39 10.6633Z" fill="#BFAF9B"/>
<g clip-path="url(#clip0_2010_119)">
<path d="M981.238 851.297C972.246 843.698 966.783 831.695 968.216 820.009C969.648 808.324 978.521 797.581 990.029 795.099C1001.54 792.618 1014.66 799.487 1018.15 810.729C1020.08 789.055 1022.29 766.472 1033.82 748.014C1044.25 731.301 1062.32 719.342 1081.91 717.203C1101.5 715.063 1122.12 723.144 1134.33 738.603C1146.55 754.062 1149.54 776.537 1140.98 794.285C1134.68 807.36 1123.07 817.091 1110.9 825.007C1071.59 850.371 1024.44 860.686 978.133 854.053" fill="#F2F2F2"/>
<path d="M1114.96 723.592C1098.8 736.755 1083.98 751.477 1070.7 767.546C1049.92 792.606 1033.11 820.704 1020.84 850.86C1019.95 853.06 1023.52 854.017 1024.41 851.842C1044.47 802.833 1076.51 759.636 1117.58 726.204C1119.42 724.702 1116.79 722.102 1114.96 723.592Z" fill="white"/>
<path d="M645.5 307C645.499 307.265 645.394 307.519 645.206 307.706C645.019 307.894 644.765 307.999 644.5 308H644.02C643.28 307.36 642.56 306.69 641.86 306H644.5C644.765 306.001 645.019 306.106 645.206 306.294C645.394 306.481 645.499 306.735 645.5 307Z" fill="#F2F2F2"/>
<path d="M669.5 270H418.5C416.644 270.002 414.865 270.74 413.553 272.053C412.24 273.365 411.502 275.144 411.5 277V413C411.502 414.856 412.24 416.635 413.553 417.947C414.865 419.26 416.644 419.998 418.5 420H669.5C671.356 419.998 673.135 419.26 674.447 417.947C675.76 416.635 676.498 414.856 676.5 413V277C676.498 275.144 675.76 273.365 674.447 272.053C673.135 270.74 671.356 270.002 669.5 270ZM674.5 413C674.499 414.326 673.973 415.597 673.035 416.535C672.097 417.472 670.826 417.999 669.5 418H418.5C417.174 417.999 415.903 417.472 414.965 416.535C414.027 415.597 413.501 414.326 413.5 413V277C413.501 275.674 414.027 274.403 414.965 273.465C415.903 272.527 417.174 272.001 418.5 272H669.5C670.826 272.001 672.097 272.527 673.035 273.465C673.973 274.403 674.499 275.674 674.5 277V413Z" fill="#3F3D56"/>
<path d="M517.22 329.16C514.23 321.98 509.58 316 502.82 312.04C495.73 307.87 487.62 304.4 479.46 303.15C471.292 301.942 462.963 302.409 454.98 304.52C453.94 304.79 452.86 305.08 451.78 305.4C448.972 306.125 446.303 307.307 443.88 308.9C443.8 308.95 443.72 309 443.64 309.06C440.54 311.34 438.42 315.1 436.68 318.47C435.03 321.7 433.99 325.26 434.89 328.87C435.866 332.163 437.897 335.044 440.67 337.07C442.6 338.59 445.13 340.51 447.71 340.55C448.32 340.564 448.927 340.462 449.5 340.25C449.679 340.187 449.85 340.103 450.01 340C451.05 340.312 452.125 340.49 453.21 340.53C457.6 340.73 461.99 338.87 466.5 337.35C467.557 336.981 468.64 336.69 469.74 336.48C471.709 336.051 473.754 336.12 475.69 336.68C476.047 336.781 476.398 336.905 476.74 337.05C480.081 338.617 482.9 341.113 484.86 344.24C486.77 347.08 488.03 350.31 490.13 353.04C491.172 354.447 492.499 355.619 494.024 356.48C495.548 357.342 497.237 357.873 498.98 358.04C504.22 358.62 510.8 358.34 515.31 355.19C516.534 354.354 517.584 353.287 518.4 352.05C518.48 351.93 518.56 351.81 518.63 351.69C522.78 344.86 520.06 335.95 517.22 329.16ZM448.13 318.67C449.13 318.78 450.14 318.9 451.14 319.01C449.227 319.352 447.438 320.19 445.95 321.44C445.385 321.92 444.86 322.445 444.38 323.01C444.4 322.97 444.4 322.92 444.42 322.88C444.713 321.96 445.194 321.11 445.833 320.386C446.472 319.661 447.254 319.077 448.13 318.67ZM508.42 344.07C508.6 344.03 508.79 344 508.97 343.97C509.258 343.925 509.531 343.816 509.77 343.65C509.77 343.68 509.78 343.72 509.78 343.75C509.782 343.884 509.792 344.017 509.81 344.15C509.76 344.23 509.72 344.31 509.67 344.39C509.25 344.28 508.84 344.17 508.42 344.07ZM505.63 319.75C507.844 321.841 509.729 324.255 511.22 326.91C509.455 324.753 507.504 322.756 505.39 320.94C505.549 320.563 505.631 320.159 505.63 319.75ZM503.2 348.12C503.114 348.266 503.05 348.425 503.01 348.59C502.74 348.6 502.46 348.61 502.18 348.61H502.04C502.03 348.57 502.01 348.52 502 348.48C501.94 348.3 501.89 348.12 501.83 347.94C502.29 348 502.74 348.06 503.2 348.12ZM481.82 325.69C481.847 325.488 481.853 325.284 481.84 325.08C482.06 325.246 482.318 325.356 482.59 325.4C482.62 325.41 482.66 325.41 482.69 325.42C482.88 325.53 483.06 325.63 483.25 325.74L483.19 325.83C482.73 325.78 482.27 325.74 481.82 325.69ZM497.66 320.71H497.63C496.97 320.3 496.31 319.89 495.64 319.5C496.32 319.88 497 320.29 497.66 320.71ZM493.98 339.45C493.877 339.553 493.789 339.671 493.72 339.8C493.67 339.73 493.63 339.67 493.58 339.6C493.706 339.532 493.84 339.481 493.98 339.45ZM485.02 319.86C484.798 319.684 484.552 319.539 484.29 319.43C483.002 318.933 481.682 318.522 480.34 318.2C480.14 318.01 479.94 317.82 479.75 317.62C480.885 317.84 482.007 318.123 483.11 318.47C484.523 318.923 485.908 319.457 487.26 320.07C486.51 319.99 485.77 319.92 485.02 319.86ZM477.4 307.32C480.277 307.704 483.113 308.354 485.87 309.26C485.59 309.19 485.31 309.13 485.03 309.06C482.38 308.46 479.68 307.82 476.96 307.27C477.11 307.29 477.25 307.3 477.4 307.32Z" fill="#CCCCCC"/>
<path d="M488.173 384.977C485.65 384.906 482.511 384.818 480.094 383.052C479.374 382.505 478.783 381.806 478.361 381.006C477.939 380.206 477.698 379.323 477.653 378.42C477.609 377.778 477.715 377.134 477.961 376.54C478.207 375.945 478.588 375.416 479.072 374.993C479.793 374.455 480.636 374.106 481.526 373.978C482.416 373.85 483.324 373.947 484.167 374.259L482.108 359.212L483.619 359.005L486.04 376.695L484.778 376.116C483.314 375.445 481.306 375.103 480.057 376.158C479.751 376.433 479.512 376.776 479.359 377.159C479.207 377.542 479.145 377.955 479.178 378.366C479.215 379.038 479.396 379.695 479.71 380.291C480.023 380.887 480.461 381.409 480.994 381.82C482.875 383.195 485.377 383.372 488.215 383.452L488.173 384.977Z" fill="#3F3D56"/>
<path d="M474.633 360.509H466.416V362.035H474.633V360.509Z" fill="#3F3D56"/>
<path d="M500.569 360.509H492.352V362.035H500.569V360.509Z" fill="#3F3D56"/>
<path d="M452.14 339.442C445.523 338.687 440.398 332.347 439.835 325.914C439.166 318.262 443.622 310.993 449.737 306.699C456.131 302.208 464.098 300.332 471.806 299.92C486.842 299.171 501.619 304.042 513.264 313.585C519.04 318.382 524.434 324.492 526.478 331.873C528.254 338.283 526.809 345.545 521.654 350.034C520.378 351.134 518.889 351.958 517.279 352.454C515.67 352.949 513.975 353.106 512.301 352.914C508.301 352.498 504.61 350.395 501.415 348.072C495.201 343.553 490.099 337.259 482.527 334.897C476.976 333.166 469.771 334.69 466.379 339.71C465.609 340.86 465.11 342.169 464.92 343.539C464.85 343.831 464.893 344.139 465.041 344.4C465.19 344.662 465.432 344.857 465.719 344.946C466.011 345.025 466.323 344.985 466.587 344.836C466.85 344.686 467.044 344.439 467.126 344.147C468.017 337.824 475.792 335.464 481.248 336.908C489.204 339.014 494.544 346.113 501.071 350.623C504.449 353.142 508.43 354.731 512.614 355.23C516.243 355.515 519.844 354.409 522.686 352.136C528.262 347.733 530.395 340.16 529.162 333.342C527.734 325.446 522.42 318.679 516.589 313.44C504.768 302.931 489.422 297.262 473.608 297.562C465.542 297.748 457.126 299.413 450.177 303.676C443.437 307.811 438.227 314.729 437.546 322.771C436.947 329.849 440.745 337.253 447.264 340.354C448.801 341.082 450.449 341.547 452.14 341.73C453.601 341.897 453.589 339.607 452.14 339.442Z" fill="#3F3D56"/>
<path d="M645.5 307C645.499 307.265 645.394 307.519 645.206 307.706C645.019 307.894 644.765 307.999 644.5 308H562.5C562.235 308 561.98 307.895 561.793 307.707C561.605 307.52 561.5 307.265 561.5 307C561.5 306.735 561.605 306.48 561.793 306.293C561.98 306.105 562.235 306 562.5 306H644.5C644.765 306.001 645.019 306.106 645.206 306.294C645.394 306.481 645.499 306.735 645.5 307Z" fill="#3F3D56"/>
<path d="M644.5 323H562.5C562.235 323 561.98 322.895 561.793 322.707C561.605 322.52 561.5 322.265 561.5 322C561.5 321.735 561.605 321.48 561.793 321.293C561.98 321.105 562.235 321 562.5 321H644.5C644.765 321 645.02 321.105 645.207 321.293C645.395 321.48 645.5 321.735 645.5 322C645.5 322.265 645.395 322.52 645.207 322.707C645.02 322.895 644.765 323 644.5 323Z" fill="#3F3D56"/>
<path d="M644.5 338H562.5C562.235 338 561.98 337.895 561.793 337.707C561.605 337.52 561.5 337.265 561.5 337C561.5 336.735 561.605 336.48 561.793 336.293C561.98 336.105 562.235 336 562.5 336H644.5C644.765 336 645.02 336.105 645.207 336.293C645.395 336.48 645.5 336.735 645.5 337C645.5 337.265 645.395 337.52 645.207 337.707C645.02 337.895 644.765 338 644.5 338Z" fill="#3F3D56"/>
<path d="M644.5 353H562.5C562.235 353 561.98 352.895 561.793 352.707C561.605 352.52 561.5 352.265 561.5 352C561.5 351.735 561.605 351.48 561.793 351.293C561.98 351.105 562.235 351 562.5 351H644.5C644.765 351 645.02 351.105 645.207 351.293C645.395 351.48 645.5 351.735 645.5 352C645.5 352.265 645.395 352.52 645.207 352.707C645.02 352.895 644.765 353 644.5 353Z" fill="#3F3D56"/>
<path d="M644.5 368H562.5C562.235 368 561.98 367.895 561.793 367.707C561.605 367.52 561.5 367.265 561.5 367C561.5 366.735 561.605 366.48 561.793 366.293C561.98 366.105 562.235 366 562.5 366H644.5C644.765 366 645.02 366.105 645.207 366.293C645.395 366.48 645.5 366.735 645.5 367C645.5 367.265 645.395 367.52 645.207 367.707C645.02 367.895 644.765 368 644.5 368Z" fill="#3F3D56"/>
<path d="M644.5 383H562.5C562.235 383 561.98 382.895 561.793 382.707C561.605 382.52 561.5 382.265 561.5 382C561.5 381.735 561.605 381.48 561.793 381.293C561.98 381.105 562.235 381 562.5 381H644.5C644.765 381 645.02 381.105 645.207 381.293C645.395 381.48 645.5 381.735 645.5 382C645.5 382.265 645.395 382.52 645.207 382.707C645.02 382.895 644.765 383 644.5 383Z" fill="#3F3D56"/>
<path d="M348.131 516.555C345.344 516.563 342.653 515.536 340.58 513.674C339.42 512.639 338.483 511.378 337.828 509.968C337.173 508.558 336.812 507.029 336.769 505.475L292.393 473.201C291.054 472.227 289.942 470.975 289.134 469.53C288.325 468.085 287.839 466.483 287.71 464.832C287.58 463.181 287.81 461.522 288.383 459.969C288.957 458.416 289.86 457.006 291.03 455.835L324.069 422.797C325.43 421.435 327.164 420.508 329.053 420.133C330.941 419.757 332.898 419.95 334.677 420.687C336.456 421.423 337.976 422.671 339.046 424.272C340.115 425.873 340.686 427.755 340.686 429.68C340.416 434.731 338.426 439.537 335.045 443.299L312.613 465.731L347.821 493.796C347.93 493.789 348.038 493.783 348.148 493.783C351.055 493.783 353.852 494.894 355.966 496.89C358.08 498.886 359.35 501.614 359.517 504.517C359.684 507.419 358.734 510.275 356.863 512.499C354.992 514.724 352.341 516.149 349.453 516.481C349.014 516.53 348.572 516.555 348.131 516.555Z" fill="#FFB8B8"/>
<path d="M400.863 707.183L412.77 702.738L401.291 654.695L383.717 661.256L400.863 707.183Z" fill="#FFB8B8"/>
<path d="M439.861 705.222L402.439 719.192L397.041 704.734L420.517 695.97C424.216 694.589 428.312 694.734 431.904 696.373C435.496 698.012 438.289 701.011 439.67 704.71L439.861 705.222Z" fill="#2F2E41"/>
<path d="M293.741 709.363H306.451L312.497 660.339L293.739 660.34L293.741 709.363Z" fill="#FFB8B8"/>
<path d="M330.963 721.164L291.018 721.166L291.017 705.732L316.075 705.731C320.024 705.731 323.81 707.299 326.602 710.091C329.394 712.882 330.963 716.669 330.963 720.617L330.963 721.164Z" fill="#2F2E41"/>
<path d="M307.459 695.986C307.316 695.986 307.173 695.979 307.029 695.965L293.557 694.682C292.464 694.578 291.447 694.078 290.697 693.276C289.947 692.475 289.516 691.426 289.485 690.329C288.707 661.153 286.749 513.9 324.642 480.156C325.299 479.578 326.114 479.21 326.981 479.099C333.845 478.158 357.001 475.85 366.803 485.709C367.425 486.33 367.856 487.116 368.044 487.974L410.952 686.362C411.084 686.972 411.088 687.603 410.963 688.215C410.837 688.827 410.586 689.406 410.225 689.916C409.864 690.425 409.4 690.854 408.865 691.174C408.329 691.495 407.732 691.701 407.112 691.778L390.661 693.834C390.067 693.909 389.464 693.865 388.887 693.704C388.31 693.542 387.772 693.267 387.303 692.895C386.834 692.523 386.444 692.06 386.156 691.535C385.868 691.01 385.689 690.433 385.627 689.837C383.99 673.89 374.154 592.887 341.192 564.174C340.745 563.782 340.208 563.508 339.628 563.378C339.049 563.247 338.446 563.265 337.875 563.428C337.316 563.583 336.805 563.878 336.392 564.286C335.978 564.693 335.675 565.199 335.511 565.755C329.409 585.722 309.675 653.776 311.943 691.217C311.981 691.829 311.893 692.442 311.685 693.019C311.476 693.596 311.152 694.124 310.732 694.571C310.312 695.018 309.805 695.374 309.242 695.617C308.679 695.86 308.072 695.986 307.459 695.986Z" fill="#2F2E41"/>
<path d="M333.388 398.982C346.953 398.982 357.949 387.985 357.949 374.421C357.949 360.856 346.953 349.86 333.388 349.86C319.823 349.86 308.827 360.856 308.827 374.421C308.827 387.985 319.823 398.982 333.388 398.982Z" fill="#FFB8B8"/>
<path d="M309.272 420.677C309.272 420.677 332.079 393.722 350.74 415.493C362.747 429.501 369.097 447.484 368.55 465.925L367.846 489.618L324.822 482.879L309.272 420.677Z" fill="#BFAF9B"/>
<path d="M369.208 472.906C369.029 472.906 368.85 472.902 368.671 472.895C366.832 472.819 365.033 472.345 363.396 471.505C361.759 470.666 360.324 469.481 359.189 468.033L331.274 432.44C330.085 430.925 329.373 429.092 329.227 427.172C329.081 425.252 329.507 423.332 330.452 421.655C331.397 419.977 332.818 418.618 334.535 417.748C336.253 416.878 338.19 416.537 340.101 416.768L344.031 417.243C346.541 417.684 348.825 418.97 350.502 420.888L372.523 448.965L404.61 417.379C404.616 417.271 404.623 417.163 404.637 417.053C404.905 414.83 405.822 412.736 407.275 411.032C408.727 409.327 410.65 408.089 412.802 407.472C414.954 406.855 417.241 406.886 419.375 407.561C421.51 408.237 423.398 409.526 424.804 411.269C426.209 413.012 427.07 415.131 427.278 417.36C427.485 419.59 427.031 421.831 425.972 423.803C424.913 425.776 423.296 427.393 421.322 428.451C419.349 429.509 417.108 429.962 414.879 429.753L378.526 468.845C377.336 470.127 375.894 471.149 374.291 471.848C372.687 472.547 370.957 472.907 369.208 472.906Z" fill="#FFB8B8"/>
<path d="M337.37 378.67L347.922 366.238C350.641 363.035 353.486 359.545 353.87 355.36C354.292 350.773 351.502 346.314 347.687 343.731C343.873 341.149 339.189 340.177 334.596 339.82C326.078 339.159 317.114 340.567 310.112 345.462C303.109 350.357 298.528 359.194 300.235 367.566C301.58 374.158 306.534 380.472 304.608 386.918C302.501 393.971 293.862 396.135 286.808 398.238C274.967 401.768 263.661 408.718 257.456 419.403C251.251 430.087 251.278 444.819 259.55 453.997C264.906 459.94 272.984 462.946 280.972 463.398C288.959 463.85 296.91 461.969 304.485 459.396C311.462 457.026 318.363 453.978 323.856 449.067C329.348 444.155 333.305 437.127 333.134 429.761C332.971 422.741 329.21 416.347 327.665 409.497C326.447 403.761 326.767 397.805 328.592 392.233C330.418 386.66 333.684 381.67 338.061 377.767" fill="#2F2E41"/>
<path d="M849.5 627H598.5C596.644 626.998 594.865 626.26 593.553 624.947C592.24 623.635 591.502 621.856 591.5 620V484C591.502 482.144 592.24 480.365 593.553 479.053C594.865 477.74 596.644 477.002 598.5 477H849.5C851.356 477.002 853.135 477.74 854.447 479.053C855.76 480.365 856.498 482.144 856.5 484V620C856.498 621.856 855.76 623.635 854.447 624.947C853.135 626.26 851.356 626.998 849.5 627ZM598.5 479C597.174 479.002 595.904 479.529 594.966 480.466C594.029 481.404 593.502 482.674 593.5 484V620C593.502 621.326 594.029 622.596 594.966 623.534C595.904 624.471 597.174 624.998 598.5 625H849.5C850.826 624.998 852.096 624.471 853.034 623.534C853.971 622.596 854.498 621.326 854.5 620V484C854.498 482.674 853.971 481.404 853.034 480.466C852.096 479.529 850.826 479.002 849.5 479H598.5Z" fill="#3F3D56"/>
<path d="M697.224 536.157C694.229 528.985 689.576 523.003 682.821 519.037C675.725 514.871 667.625 511.402 659.464 510.151C651.294 508.944 642.965 509.41 634.981 511.521C631.132 512.518 626.89 513.676 623.644 516.062C620.541 518.344 618.415 522.097 616.685 525.468C615.027 528.698 613.993 532.255 614.891 535.873C615.866 539.167 617.899 542.048 620.674 544.073C623.037 545.939 626.341 548.41 629.501 547.253C629.68 547.187 629.851 547.101 630.011 546.995C635.468 548.656 640.894 546.241 646.495 544.35C649.9 543.201 653.323 542.62 656.742 544.054C660.083 545.618 662.902 548.112 664.862 551.236C666.774 554.082 668.033 557.314 670.13 560.042C671.173 561.447 672.5 562.617 674.023 563.478C675.547 564.338 677.234 564.869 678.976 565.037C685.744 565.795 694.728 565.097 698.627 558.688C702.783 551.859 700.064 542.954 697.224 536.157ZM628.131 525.668C629.135 525.782 630.139 525.896 631.143 526.01C629.23 526.354 627.441 527.193 625.952 528.444C625.386 528.921 624.861 529.446 624.383 530.011C624.397 529.966 624.405 529.922 624.42 529.876C624.715 528.956 625.197 528.108 625.836 527.384C626.474 526.66 627.256 526.076 628.131 525.668ZM661.835 532.08C662.058 532.247 662.318 532.358 662.593 532.403C662.625 532.408 662.657 532.414 662.689 532.419C662.876 532.526 663.063 532.633 663.25 532.738C663.229 532.767 663.213 532.8 663.193 532.83C662.734 532.783 662.275 532.737 661.816 532.691C661.848 532.489 661.855 532.283 661.835 532.08ZM673.985 546.446C673.883 546.553 673.794 546.672 673.718 546.799C673.673 546.733 673.628 546.668 673.583 546.602C673.707 546.529 673.843 546.476 673.985 546.446ZM681.831 554.939C682.286 554.998 682.741 555.058 683.196 555.118C683.111 555.266 683.049 555.425 683.011 555.591C682.689 555.602 682.363 555.607 682.038 555.608L681.831 554.939ZM688.421 551.066L688.97 550.972C689.258 550.925 689.532 550.816 689.773 550.653C689.774 550.685 689.777 550.717 689.778 550.75C689.782 550.859 689.792 550.996 689.806 551.152C689.761 551.23 689.716 551.309 689.668 551.386C689.252 551.279 688.837 551.173 688.421 551.066ZM665.02 526.865C664.801 526.683 664.554 526.538 664.289 526.435C663 525.937 661.68 525.524 660.338 525.199C660.137 525.01 659.94 524.816 659.749 524.617C660.882 524.841 662.003 525.126 663.106 525.472C664.52 525.925 665.907 526.458 667.26 527.069C666.512 526.986 665.766 526.918 665.02 526.865ZM677.626 527.71C676.968 527.298 676.306 526.895 675.64 526.499C676.323 526.884 676.996 527.287 677.659 527.709L677.626 527.71ZM691.218 533.913C689.454 531.755 687.503 529.757 685.388 527.942C685.551 527.567 685.633 527.161 685.629 526.752C687.845 528.841 689.729 531.256 691.218 533.913ZM665.869 516.255C665.59 516.191 665.311 516.126 665.032 516.063C662.382 515.465 659.683 514.821 656.959 514.274C657.105 514.291 657.251 514.305 657.397 514.324C660.275 514.705 663.111 515.351 665.869 516.255Z" fill="#BFAF9B"/>
<path d="M668.172 591.977C665.65 591.906 662.511 591.818 660.094 590.052C659.374 589.505 658.783 588.807 658.361 588.006C657.939 587.206 657.698 586.323 657.653 585.42C657.609 584.778 657.715 584.135 657.961 583.54C658.207 582.945 658.588 582.416 659.072 581.993C659.793 581.455 660.636 581.106 661.526 580.978C662.416 580.85 663.324 580.947 664.167 581.259L662.108 566.212L663.619 566.005L666.04 583.695L664.778 583.116C663.314 582.445 661.306 582.103 660.057 583.158C659.751 583.433 659.512 583.776 659.359 584.159C659.207 584.542 659.145 584.955 659.178 585.366C659.215 586.038 659.396 586.695 659.71 587.291C660.023 587.887 660.461 588.409 660.994 588.82C662.875 590.195 665.377 590.372 668.215 590.452L668.172 591.977Z" fill="#3F3D56"/>
<path d="M654.633 567.509H646.416V569.035H654.633V567.509Z" fill="#3F3D56"/>
<path d="M680.569 567.509H672.352V569.035H680.569V567.509Z" fill="#3F3D56"/>
<path d="M632.14 546.442C625.523 545.687 620.398 539.347 619.835 532.914C619.166 525.262 623.622 517.993 629.737 513.699C636.131 509.208 644.098 507.332 651.806 506.919C666.842 506.171 681.619 511.042 693.264 520.584C699.04 525.382 704.434 531.492 706.478 538.873C708.254 545.283 706.809 552.545 701.654 557.034C700.378 558.134 698.889 558.958 697.279 559.454C695.67 559.949 693.975 560.106 692.301 559.913C688.301 559.498 684.61 557.395 681.415 555.072C675.201 550.553 670.099 544.258 662.527 541.897C656.976 540.166 649.771 541.69 646.379 546.71C645.609 547.859 645.11 549.169 644.92 550.539C644.85 550.831 644.893 551.139 645.041 551.4C645.19 551.661 645.432 551.857 645.719 551.946C646.011 552.025 646.323 551.985 646.587 551.836C646.85 551.686 647.044 551.439 647.126 551.147C648.017 544.824 655.792 542.464 661.248 543.908C669.204 546.014 674.544 553.113 681.071 557.623C684.449 560.142 688.43 561.731 692.614 562.23C696.243 562.515 699.844 561.409 702.686 559.136C708.262 554.733 710.395 547.16 709.162 540.342C707.734 532.446 702.42 525.679 696.589 520.44C684.768 509.931 669.422 504.262 653.608 504.562C645.542 504.748 637.126 506.413 630.177 510.676C623.437 514.811 618.227 521.729 617.546 529.771C616.947 536.849 620.745 544.253 627.264 547.354C628.801 548.082 630.449 548.547 632.14 548.73C633.601 548.897 633.589 546.607 632.14 546.442Z" fill="#3F3D56"/>
<path d="M824.5 515H742.5C742.235 515 741.98 514.895 741.793 514.707C741.605 514.52 741.5 514.265 741.5 514C741.5 513.735 741.605 513.48 741.793 513.293C741.98 513.105 742.235 513 742.5 513H824.5C824.765 513 825.02 513.105 825.207 513.293C825.395 513.48 825.5 513.735 825.5 514C825.5 514.265 825.395 514.52 825.207 514.707C825.02 514.895 824.765 515 824.5 515Z" fill="#3F3D56"/>
<path d="M824.5 530H742.5C742.235 530 741.98 529.895 741.793 529.707C741.605 529.52 741.5 529.265 741.5 529C741.5 528.735 741.605 528.48 741.793 528.293C741.98 528.105 742.235 528 742.5 528H824.5C824.765 528 825.02 528.105 825.207 528.293C825.395 528.48 825.5 528.735 825.5 529C825.5 529.265 825.395 529.52 825.207 529.707C825.02 529.895 824.765 530 824.5 530Z" fill="#3F3D56"/>
<path d="M824.5 545H742.5C742.235 545 741.98 544.895 741.793 544.707C741.605 544.52 741.5 544.265 741.5 544C741.5 543.735 741.605 543.48 741.793 543.293C741.98 543.105 742.235 543 742.5 543H824.5C824.765 543 825.02 543.105 825.207 543.293C825.395 543.48 825.5 543.735 825.5 544C825.5 544.265 825.395 544.52 825.207 544.707C825.02 544.895 824.765 545 824.5 545Z" fill="#3F3D56"/>
<path d="M824.5 560H742.5C742.235 560 741.98 559.895 741.793 559.707C741.605 559.52 741.5 559.265 741.5 559C741.5 558.735 741.605 558.48 741.793 558.293C741.98 558.105 742.235 558 742.5 558H824.5C824.765 558 825.02 558.105 825.207 558.293C825.395 558.48 825.5 558.735 825.5 559C825.5 559.265 825.395 559.52 825.207 559.707C825.02 559.895 824.765 560 824.5 560Z" fill="#3F3D56"/>
<path d="M824.5 575H742.5C742.235 575 741.98 574.895 741.793 574.707C741.605 574.52 741.5 574.265 741.5 574C741.5 573.735 741.605 573.48 741.793 573.293C741.98 573.105 742.235 573 742.5 573H824.5C824.765 573 825.02 573.105 825.207 573.293C825.395 573.48 825.5 573.735 825.5 574C825.5 574.265 825.395 574.52 825.207 574.707C825.02 574.895 824.765 575 824.5 575Z" fill="#3F3D56"/>
<path d="M824.5 590H742.5C742.235 590 741.98 589.895 741.793 589.707C741.605 589.52 741.5 589.265 741.5 589C741.5 588.735 741.605 588.48 741.793 588.293C741.98 588.105 742.235 588 742.5 588H824.5C824.765 588 825.02 588.105 825.207 588.293C825.395 588.48 825.5 588.735 825.5 589C825.5 589.265 825.395 589.52 825.207 589.707C825.02 589.895 824.765 590 824.5 590Z" fill="#3F3D56"/>
<path d="M977.686 481.676C992.177 481.676 1003.92 469.928 1003.92 455.437C1003.92 440.946 992.177 429.198 977.686 429.198C963.194 429.198 951.447 440.946 951.447 455.437C951.447 469.928 963.194 481.676 977.686 481.676Z" fill="#FFB8B8"/>
<path d="M899.487 842.021L887.009 838.044L896.412 788.019L914.829 793.889L899.487 842.021Z" fill="#FFB8B8"/>
<path d="M878.666 831.452L903.298 839.303L898.469 854.455L859.25 841.955L859.431 841.389C860.041 839.473 861.023 837.697 862.32 836.161C863.617 834.625 865.204 833.359 866.99 832.436C868.776 831.514 870.727 830.952 872.73 830.783C874.733 830.614 876.75 830.841 878.666 831.452Z" fill="#2F2E41"/>
<path d="M990.277 841.762H977.179L970.946 791.244H990.277V841.762Z" fill="#FFB8B8"/>
<path d="M967.229 838.02H993.083V853.924H951.92V853.329C951.92 851.319 952.316 849.328 953.086 847.471C953.855 845.613 954.983 843.926 956.404 842.504C957.826 841.082 959.514 839.955 961.371 839.185C963.228 838.416 965.219 838.02 967.229 838.02Z" fill="#2F2E41"/>
<path d="M989.893 825.368L985.473 824.708C972.066 822.711 971.263 822.591 969.134 821.657C968.048 821.179 967.971 813.963 968.624 773.401C969.103 743.626 969.699 706.571 968.541 686.678C968.494 685.893 968.183 685.147 967.659 684.561C967.136 683.974 966.43 683.581 965.655 683.444C964.881 683.308 964.083 683.436 963.391 683.809C962.698 684.181 962.151 684.776 961.838 685.498C951.863 708.535 935.126 760.088 924.051 794.202C920.199 806.068 917.156 815.441 915.231 821.059C914.859 822.122 914.105 823.007 913.115 823.543C912.125 824.079 910.97 824.227 909.877 823.957C900.763 821.679 901.373 820.71 888.392 817.353C887.269 817.066 886.3 816.356 885.688 815.372C885.077 814.388 884.869 813.205 885.11 812.071C887.458 800.999 930.425 621.471 933.713 604.405C933.825 603.821 934.051 603.265 934.378 602.769C934.706 602.272 935.128 601.846 935.621 601.514C936.115 601.181 936.669 600.95 937.252 600.834C937.835 600.717 938.435 600.717 939.019 600.834C948.692 602.783 954.578 604.851 964.137 606.85C974.453 609.008 985.12 611.239 995.524 613.322C996.559 613.53 997.487 614.099 998.143 614.927C1000.72 618.179 1004.53 620.004 1008.58 621.936C1011.3 623.239 1005.13 623.121 1007.5 625C1017.11 632.607 1003.29 787.088 994.94 821.978C994.672 823.07 994.007 824.023 993.073 824.65C992.139 825.277 991.006 825.533 989.893 825.368Z" fill="#2F2E41"/>
<path d="M981.984 650.28C981.686 648.924 981.689 647.519 981.992 646.164C982.296 644.809 982.892 643.537 983.741 642.438C984.589 641.339 985.668 640.439 986.901 639.802C988.135 639.164 989.493 638.805 990.88 638.75L1012.09 614.812L1025.26 630.723L1000.87 648.54C1000.81 650.876 999.891 653.11 998.293 654.816C996.695 656.522 994.527 657.583 992.199 657.798C989.872 658.012 987.546 657.365 985.663 655.98C983.781 654.594 982.471 652.566 981.984 650.28Z" fill="#FFB8B8"/>
<path d="M988.87 478.396C987.338 471.896 995.082 457.91 993.55 451.41C992.512 447.008 982.161 450 979.746 446.177C977.33 442.353 973.284 439.256 968.761 439.205C963.563 439.147 958.449 443.003 953.525 441.336C948.546 439.651 946.955 432.833 949.156 428.06C951.357 423.287 956.099 420.246 960.783 417.862C968.761 413.804 978.05 410.84 986.588 413.525C991.749 415.149 996.065 418.666 1000.24 422.106C1004.05 425.241 1007.92 428.448 1010.58 432.601C1015.79 440.736 1015.48 451.696 1011.02 460.27C1006.57 468.843 998.45 475.135 989.505 478.787" fill="#2F2E41"/>
<path d="M924.441 629.663C927.273 624.932 931.573 602.766 936.875 565.559C940.485 540.161 943.63 514.353 945.191 501.171C945.312 500.104 945.702 499.085 946.325 498.21C946.947 497.336 947.782 496.633 948.75 496.169C949.763 495.681 950.77 495.218 951.77 494.782C964.693 489.161 977.79 487.298 990.694 489.246C1003.58 491.225 1015.67 496.732 1025.61 505.157L1025.73 505.268L1025.76 505.426C1025.82 505.719 1031.24 534.924 1020.14 554.655C1009.19 574.124 1009.06 625.682 1009.06 626.2V626.863L1008.42 626.681C991.391 621.814 925.598 630.329 924.935 630.415L923.91 630.549L924.441 629.663Z" fill="#CCCCCC"/>
<path d="M994.332 633.619L1027.79 589.009L1010.54 552.04L1011.79 508.194L1025.93 505.581L1026.08 505.656C1032.95 509.674 1038.28 515.88 1041.21 523.28C1044.35 531.136 1050.87 557.861 1055.78 578.898C1057.07 584.313 1056.94 589.966 1055.41 595.316C1053.88 600.667 1051.01 605.535 1047.06 609.456L1006.02 650.499L994.332 633.619Z" fill="#CCCCCC"/>
<path d="M853.878 545.211C854.678 544.076 855.717 543.13 856.922 542.44C858.127 541.75 859.468 541.333 860.852 541.217C862.236 541.102 863.628 541.291 864.93 541.772C866.233 542.253 867.414 543.013 868.391 544L900.368 543.508L897.507 563.962L867.902 557.977C866.136 559.508 863.869 560.338 861.531 560.31C859.194 560.281 856.948 559.397 855.22 557.823C853.491 556.249 852.4 554.096 852.152 551.772C851.905 549.447 852.519 547.113 853.878 545.211Z" fill="#FFB8B8"/>
<path d="M869.929 563.103L874.503 543.087L930.003 537.691L945.218 501.1L945.663 500.019L951.643 494.862L951.77 494.782C964.693 489.161 977.789 487.299 990.695 489.246L991.148 489.314L991.119 489.771C990.828 494.454 989.626 499.035 987.58 503.257C981.839 515.166 946.516 565.786 946.16 566.296L946.002 566.521L869.929 563.103Z" fill="#CCCCCC"/>
<path d="M1136 856H755C754.735 856 754.48 855.895 754.293 855.707C754.105 855.52 754 855.265 754 855C754 854.735 754.105 854.48 754.293 854.293C754.48 854.105 754.735 854 755 854H1136C1136.27 854 1136.52 854.105 1136.71 854.293C1136.89 854.48 1137 854.735 1137 855C1137 855.265 1136.89 855.52 1136.71 855.707C1136.52 855.895 1136.27 856 1136 856Z" fill="#3F3D56"/>
<path d="M544 721H163C162.735 721 162.48 720.895 162.293 720.707C162.105 720.52 162 720.265 162 720C162 719.735 162.105 719.48 162.293 719.293C162.48 719.105 162.735 719 163 719H544C544.265 719 544.52 719.105 544.707 719.293C544.895 719.48 545 719.735 545 720C545 720.265 544.895 720.52 544.707 720.707C544.52 720.895 544.265 721 544 721Z" fill="#3F3D56"/>
</g>
<defs>
<clipPath id="clip0_2010_119">
<rect width="983.864" height="586.046" fill="white" transform="translate(162 270)"/>
</clipPath>
</defs>
</svg>
